<?xml version="1.0" encoding="UTF-8" standalone="no"?>
<!DOCTYPE svg PUBLIC "-//W3C//DTD SVG 1.1//EN"
 "http://www.w3.org/Graphics/SVG/1.1/DTD/svg11.dtd">
<!-- Generated by graphviz version 7.0.6 (20230106.0513)
 -->
<!-- Title: controllers_diagram Pages: 1 -->
<svg width="748pt" height="679pt"
 viewBox="0.00 0.00 748.00 679.00" xmlns="http://www.w3.org/2000/svg" xmlns:xlink="http://www.w3.org/1999/xlink">
<g id="graph0" class="graph" transform="scale(1 1) rotate(0) translate(4 675)">
<title>controllers_diagram</title>
<polygon fill="none" stroke="none" points="-4,4 -4,-675 744,-675 744,4 -4,4"/>
<!-- _diagram_info -->
<g id="node1" class="node">
<title>_diagram_info</title>
<text text-anchor="start" x="535" y="-573.6" font-family="Times,serif" font-size="13.00">Controllers diagram</text>
<text text-anchor="start" x="535" y="-559.6" font-family="Times,serif" font-size="13.00">Date: Jan 10 2023 &#45; 20:01</text>
<text text-anchor="start" x="535" y="-545.6" font-family="Times,serif" font-size="13.00">Migration version: 20230110151513</text>
<text text-anchor="start" x="535" y="-531.6" font-family="Times,serif" font-size="13.00">Generated by RailRoady 1.6.0</text>
<text text-anchor="start" x="535" y="-517.6" font-family="Times,serif" font-size="13.00">http://railroady.prestonlee.com</text>
</g>
<!-- ApplicationController -->
<g id="node2" class="node">
<title>ApplicationController</title>
<path fill="none" stroke="black" d="M403,-170.5C403,-170.5 553,-170.5 553,-170.5 559,-170.5 565,-176.5 565,-182.5 565,-182.5 565,-312.5 565,-312.5 565,-318.5 559,-324.5 553,-324.5 553,-324.5 403,-324.5 403,-324.5 397,-324.5 391,-318.5 391,-312.5 391,-312.5 391,-182.5 391,-182.5 391,-176.5 397,-170.5 403,-170.5"/>
<text text-anchor="middle" x="478" y="-309.3" font-family="Times,serif" font-size="14.00">ApplicationController</text>
<polyline fill="none" stroke="black" points="391,-301.5 565,-301.5"/>
<polyline fill="none" stroke="black" points="391,-277.5 565,-277.5"/>
<polyline fill="none" stroke="black" points="391,-253.5 565,-253.5"/>
<text text-anchor="start" x="399" y="-238.3" font-family="Times,serif" font-size="14.00">_layout</text>
<text text-anchor="start" x="399" y="-223.3" font-family="Times,serif" font-size="14.00">_layout_from_proc</text>
<text text-anchor="start" x="399" y="-208.3" font-family="Times,serif" font-size="14.00">set_current_user</text>
<text text-anchor="start" x="399" y="-193.3" font-family="Times,serif" font-size="14.00">turbo_frame_request_variant</text>
<text text-anchor="start" x="399" y="-178.3" font-family="Times,serif" font-size="14.00">validate_username</text>
</g>
<!-- MessagesController -->
<g id="node3" class="node">
<title>MessagesController</title>
<path fill="none" stroke="black" d="M250,-0.5C250,-0.5 351,-0.5 351,-0.5 357,-0.5 363,-6.5 363,-12.5 363,-12.5 363,-111.5 363,-111.5 363,-117.5 357,-123.5 351,-123.5 351,-123.5 250,-123.5 250,-123.5 244,-123.5 238,-117.5 238,-111.5 238,-111.5 238,-12.5 238,-12.5 238,-6.5 244,-0.5 250,-0.5"/>
<text text-anchor="middle" x="300.5" y="-108.3" font-family="Times,serif" font-size="14.00">MessagesController</text>
<polyline fill="none" stroke="black" points="238,-100.5 363,-100.5"/>
<text text-anchor="start" x="246" y="-85.3" font-family="Times,serif" font-size="14.00">create</text>
<polyline fill="none" stroke="black" points="238,-77.5 363,-77.5"/>
<polyline fill="none" stroke="black" points="238,-53.5 363,-53.5"/>
<text text-anchor="start" x="246" y="-38.3" font-family="Times,serif" font-size="14.00">_layout</text>
<text text-anchor="start" x="246" y="-23.3" font-family="Times,serif" font-size="14.00">_layout_from_proc</text>
<text text-anchor="start" x="246" y="-8.3" font-family="Times,serif" font-size="14.00">msg_params</text>
</g>
<!-- PagesController -->
<g id="node4" class="node">
<title>PagesController</title>
<path fill="none" stroke="black" d="M63,-255.5C63,-255.5 161,-255.5 161,-255.5 167,-255.5 173,-261.5 173,-267.5 173,-267.5 173,-381.5 173,-381.5 173,-387.5 167,-393.5 161,-393.5 161,-393.5 63,-393.5 63,-393.5 57,-393.5 51,-387.5 51,-381.5 51,-381.5 51,-267.5 51,-267.5 51,-261.5 57,-255.5 63,-255.5"/>
<text text-anchor="middle" x="112" y="-378.3" font-family="Times,serif" font-size="14.00">PagesController</text>
<polyline fill="none" stroke="black" points="51,-370.5 173,-370.5"/>
<text text-anchor="start" x="59" y="-355.3" font-family="Times,serif" font-size="14.00">home</text>
<polyline fill="none" stroke="black" points="51,-347.5 173,-347.5"/>
<polyline fill="none" stroke="black" points="51,-323.5 173,-323.5"/>
<text text-anchor="start" x="59" y="-308.3" font-family="Times,serif" font-size="14.00">_layout</text>
<text text-anchor="start" x="59" y="-293.3" font-family="Times,serif" font-size="14.00">_layout_from_proc</text>
<text text-anchor="start" x="59" y="-278.3" font-family="Times,serif" font-size="14.00">recent_messages</text>
<text text-anchor="start" x="59" y="-263.3" font-family="Times,serif" font-size="14.00">set_status</text>
</g>
<!-- RoomsController -->
<g id="node5" class="node">
<title>RoomsController</title>
<path fill="none" stroke="black" d="M216,-153.5C216,-153.5 345,-153.5 345,-153.5 351,-153.5 357,-159.5 357,-165.5 357,-165.5 357,-354.5 357,-354.5 357,-360.5 351,-366.5 345,-366.5 345,-366.5 216,-366.5 216,-366.5 210,-366.5 204,-360.5 204,-354.5 204,-354.5 204,-165.5 204,-165.5 204,-159.5 210,-153.5 216,-153.5"/>
<text text-anchor="middle" x="280.5" y="-351.3" font-family="Times,serif" font-size="14.00">RoomsController</text>
<polyline fill="none" stroke="black" points="204,-343.5 357,-343.5"/>
<text text-anchor="start" x="212" y="-328.3" font-family="Times,serif" font-size="14.00">create</text>
<text text-anchor="start" x="212" y="-313.3" font-family="Times,serif" font-size="14.00">index</text>
<text text-anchor="start" x="212" y="-298.3" font-family="Times,serif" font-size="14.00">join</text>
<text text-anchor="start" x="212" y="-283.3" font-family="Times,serif" font-size="14.00">leave</text>
<text text-anchor="start" x="212" y="-268.3" font-family="Times,serif" font-size="14.00">search</text>
<text text-anchor="start" x="212" y="-253.3" font-family="Times,serif" font-size="14.00">show</text>
<polyline fill="none" stroke="black" points="204,-245.5 357,-245.5"/>
<polyline fill="none" stroke="black" points="204,-221.5 357,-221.5"/>
<text text-anchor="start" x="212" y="-206.3" font-family="Times,serif" font-size="14.00">_layout</text>
<text text-anchor="start" x="212" y="-191.3" font-family="Times,serif" font-size="14.00">_layout_from_proc</text>
<text text-anchor="start" x="212" y="-176.3" font-family="Times,serif" font-size="14.00">set_notifications_to_read</text>
<text text-anchor="start" x="212" y="-161.3" font-family="Times,serif" font-size="14.00">set_status</text>
</g>
<!-- TurboDeviseController -->
<g id="node6" class="node">
<title>TurboDeviseController</title>
<path fill="none" stroke="black" d="M607,-170.5C607,-170.5 726,-170.5 726,-170.5 732,-170.5 738,-176.5 738,-182.5 738,-182.5 738,-267.5 738,-267.5 738,-273.5 732,-279.5 726,-279.5 726,-279.5 607,-279.5 607,-279.5 601,-279.5 595,-273.5 595,-267.5 595,-267.5 595,-182.5 595,-182.5 595,-176.5 601,-170.5 607,-170.5"/>
<text text-anchor="middle" x="666.5" y="-264.3" font-family="Times,serif" font-size="14.00">TurboDeviseController</text>
<polyline fill="none" stroke="black" points="595,-256.5 738,-256.5"/>
<polyline fill="none" stroke="black" points="595,-232.5 738,-232.5"/>
<polyline fill="none" stroke="black" points="595,-208.5 738,-208.5"/>
<text text-anchor="start" x="603" y="-193.3" font-family="Times,serif" font-size="14.00">_layout</text>
<text text-anchor="start" x="603" y="-178.3" font-family="Times,serif" font-size="14.00">_layout_from_proc</text>
</g>
<!-- Users::ConfirmationsController -->
<g id="node7" class="node">
<title>Users::ConfirmationsController</title>
<path fill="none" stroke="black" d="M403,-34.5C403,-34.5 568,-34.5 568,-34.5 574,-34.5 580,-40.5 580,-46.5 580,-46.5 580,-131.5 580,-131.5 580,-137.5 574,-143.5 568,-143.5 568,-143.5 403,-143.5 403,-143.5 397,-143.5 391,-137.5 391,-131.5 391,-131.5 391,-46.5 391,-46.5 391,-40.5 397,-34.5 403,-34.5"/>
<text text-anchor="middle" x="485.5" y="-128.3" font-family="Times,serif" font-size="14.00">Users::ConfirmationsController</text>
<polyline fill="none" stroke="black" points="391,-120.5 580,-120.5"/>
<polyline fill="none" stroke="black" points="391,-96.5 580,-96.5"/>
<polyline fill="none" stroke="black" points="391,-72.5 580,-72.5"/>
<text text-anchor="start" x="399" y="-57.3" font-family="Times,serif" font-size="14.00">_layout</text>
<text text-anchor="start" x="399" y="-42.3" font-family="Times,serif" font-size="14.00">_layout_from_proc</text>
</g>
<!-- Users::OmniauthCallbacksController -->
<g id="node8" class="node">
<title>Users::OmniauthCallbacksController</title>
<path fill="none" stroke="black" d="M148,-425.5C148,-425.5 342,-425.5 342,-425.5 348,-425.5 354,-431.5 354,-437.5 354,-437.5 354,-522.5 354,-522.5 354,-528.5 348,-534.5 342,-534.5 342,-534.5 148,-534.5 148,-534.5 142,-534.5 136,-528.5 136,-522.5 136,-522.5 136,-437.5 136,-437.5 136,-431.5 142,-425.5 148,-425.5"/>
<text text-anchor="middle" x="245" y="-519.3" font-family="Times,serif" font-size="14.00">Users::OmniauthCallbacksController</text>
<polyline fill="none" stroke="black" points="136,-511.5 354,-511.5"/>
<polyline fill="none" stroke="black" points="136,-487.5 354,-487.5"/>
<polyline fill="none" stroke="black" points="136,-463.5 354,-463.5"/>
<text text-anchor="start" x="144" y="-448.3" font-family="Times,serif" font-size="14.00">_layout</text>
<text text-anchor="start" x="144" y="-433.3" font-family="Times,serif" font-size="14.00">_layout_from_proc</text>
</g>
<!-- Users::PasswordsController -->
<g id="node9" class="node">
<title>Users::PasswordsController</title>
<path fill="none" stroke="black" d="M46,-17.5C46,-17.5 189,-17.5 189,-17.5 195,-17.5 201,-23.5 201,-29.5 201,-29.5 201,-114.5 201,-114.5 201,-120.5 195,-126.5 189,-126.5 189,-126.5 46,-126.5 46,-126.5 40,-126.5 34,-120.5 34,-114.5 34,-114.5 34,-29.5 34,-29.5 34,-23.5 40,-17.5 46,-17.5"/>
<text text-anchor="middle" x="117.5" y="-111.3" font-family="Times,serif" font-size="14.00">Users::PasswordsController</text>
<polyline fill="none" stroke="black" points="34,-103.5 201,-103.5"/>
<polyline fill="none" stroke="black" points="34,-79.5 201,-79.5"/>
<polyline fill="none" stroke="black" points="34,-55.5 201,-55.5"/>
<text text-anchor="start" x="42" y="-40.3" font-family="Times,serif" font-size="14.00">_layout</text>
<text text-anchor="start" x="42" y="-25.3" font-family="Times,serif" font-size="14.00">_layout_from_proc</text>
</g>
<!-- Users::RegistrationsController -->
<g id="node10" class="node">
<title>Users::RegistrationsController</title>
<path fill="none" stroke="black" d="M403,-357.5C403,-357.5 585,-357.5 585,-357.5 591,-357.5 597,-363.5 597,-369.5 597,-369.5 597,-468.5 597,-468.5 597,-474.5 591,-480.5 585,-480.5 585,-480.5 403,-480.5 403,-480.5 397,-480.5 391,-474.5 391,-468.5 391,-468.5 391,-369.5 391,-369.5 391,-363.5 397,-357.5 403,-357.5"/>
<text text-anchor="middle" x="494" y="-465.3" font-family="Times,serif" font-size="14.00">Users::RegistrationsController</text>
<polyline fill="none" stroke="black" points="391,-457.5 597,-457.5"/>
<text text-anchor="start" x="399" y="-442.3" font-family="Times,serif" font-size="14.00">configure_account_update_params</text>
<text text-anchor="start" x="399" y="-427.3" font-family="Times,serif" font-size="14.00">configure_sign_up_params</text>
<polyline fill="none" stroke="black" points="391,-419.5 597,-419.5"/>
<polyline fill="none" stroke="black" points="391,-395.5 597,-395.5"/>
<text text-anchor="start" x="399" y="-380.3" font-family="Times,serif" font-size="14.00">_layout</text>
<text text-anchor="start" x="399" y="-365.3" font-family="Times,serif" font-size="14.00">_layout_from_proc</text>
</g>
<!-- Users::SessionsController -->
<g id="node11" class="node">
<title>Users::SessionsController</title>
<path fill="none" stroke="black" d="M352,-561.5C352,-561.5 485,-561.5 485,-561.5 491,-561.5 497,-567.5 497,-573.5 497,-573.5 497,-657.5 497,-657.5 497,-663.5 491,-669.5 485,-669.5 485,-669.5 352,-669.5 352,-669.5 346,-669.5 340,-663.5 340,-657.5 340,-657.5 340,-573.5 340,-573.5 340,-567.5 346,-561.5 352,-561.5"/>
<text text-anchor="middle" x="418.5" y="-654.3" font-family="Times,serif" font-size="14.00">Users::SessionsController</text>
<polyline fill="none" stroke="black" points="340,-646.5 497,-646.5"/>
<text text-anchor="start" x="348" y="-631.3" font-family="Times,serif" font-size="14.00">destroy</text>
<polyline fill="none" stroke="black" points="340,-623.5 497,-623.5"/>
<polyline fill="none" stroke="black" points="340,-599.5 497,-599.5"/>
<text text-anchor="start" x="348" y="-584.3" font-family="Times,serif" font-size="14.00">_layout</text>
<text text-anchor="start" x="348" y="-569.3" font-family="Times,serif" font-size="14.00">_layout_from_proc</text>
</g>
<!-- Users::UnlocksController -->
<g id="node12" class="node">
<title>Users::UnlocksController</title>
<path fill="none" stroke="black" d="M165,-561.5C165,-561.5 296,-561.5 296,-561.5 302,-561.5 308,-567.5 308,-573.5 308,-573.5 308,-658.5 308,-658.5 308,-664.5 302,-670.5 296,-670.5 296,-670.5 165,-670.5 165,-670.5 159,-670.5 153,-664.5 153,-658.5 153,-658.5 153,-573.5 153,-573.5 153,-567.5 159,-561.5 165,-561.5"/>
<text text-anchor="middle" x="230.5" y="-655.3" font-family="Times,serif" font-size="14.00">Users::UnlocksController</text>
<polyline fill="none" stroke="black" points="153,-647.5 308,-647.5"/>
<polyline fill="none" stroke="black" points="153,-623.5 308,-623.5"/>
<polyline fill="none" stroke="black" points="153,-599.5 308,-599.5"/>
<text text-anchor="start" x="161" y="-584.3" font-family="Times,serif" font-size="14.00">_layout</text>
<text text-anchor="start" x="161" y="-569.3" font-family="Times,serif" font-size="14.00">_layout_from_proc</text>
</g>
<!-- UsersController -->
<g id="node13" class="node">
<title>UsersController</title>
<path fill="none" stroke="black" d="M12,-561.5C12,-561.5 110,-561.5 110,-561.5 116,-561.5 122,-567.5 122,-573.5 122,-573.5 122,-657.5 122,-657.5 122,-663.5 116,-669.5 110,-669.5 110,-669.5 12,-669.5 12,-669.5 6,-669.5 0,-663.5 0,-657.5 0,-657.5 0,-573.5 0,-573.5 0,-567.5 6,-561.5 12,-561.5"/>
<text text-anchor="middle" x="61" y="-654.3" font-family="Times,serif" font-size="14.00">UsersController</text>
<polyline fill="none" stroke="black" points="0,-646.5 122,-646.5"/>
<text text-anchor="start" x="8" y="-631.3" font-family="Times,serif" font-size="14.00">show</text>
<polyline fill="none" stroke="black" points="0,-623.5 122,-623.5"/>
<polyline fill="none" stroke="black" points="0,-599.5 122,-599.5"/>
<text text-anchor="start" x="8" y="-584.3" font-family="Times,serif" font-size="14.00">_layout</text>
<text text-anchor="start" x="8" y="-569.3" font-family="Times,serif" font-size="14.00">_layout_from_proc</text>
</g>
</g>
</svg>
