<?xml version="1.0" encoding="UTF-8" standalone="no"?>
<!DOCTYPE svg PUBLIC "-//W3C//DTD SVG 1.1//EN"
 "http://www.w3.org/Graphics/SVG/1.1/DTD/svg11.dtd">
<!-- Generated by graphviz version 7.0.6 (20230106.0513)
 -->
<!-- Title: models_diagram Pages: 1 -->
<svg width="1056pt" height="406pt"
 viewBox="0.00 0.00 1055.50 406.00" xmlns="http://www.w3.org/2000/svg" xmlns:xlink="http://www.w3.org/1999/xlink">
<g id="graph0" class="graph" transform="scale(1 1) rotate(0) translate(4 402)">
<title>models_diagram</title>
<polygon fill="none" stroke="none" points="-4,4 -4,-402 1051.5,-402 1051.5,4 -4,4"/>
<!-- _diagram_info -->
<g id="node1" class="node">
<title>_diagram_info</title>
<text text-anchor="start" x="8" y="-383.6" font-family="Times,serif" font-size="13.00">Models diagram</text>
<text text-anchor="start" x="8" y="-369.6" font-family="Times,serif" font-size="13.00">Date: Jan 10 2023 &#45; 20:00</text>
<text text-anchor="start" x="8" y="-355.6" font-family="Times,serif" font-size="13.00">Migration version: 20230110151513</text>
<text text-anchor="start" x="8" y="-341.6" font-family="Times,serif" font-size="13.00">Generated by RailRoady 1.6.0</text>
<text text-anchor="start" x="8" y="-327.6" font-family="Times,serif" font-size="13.00">http://railroady.prestonlee.com</text>
</g>
<!-- Current -->
<g id="node2" class="node">
<title>Current</title>
<polygon fill="none" stroke="black" points="289.5,-377 231.5,-377 231.5,-341 289.5,-341 289.5,-377"/>
<text text-anchor="middle" x="260.5" y="-355.3" font-family="Times,serif" font-size="14.00">Current</text>
</g>
<!-- ApplicationRecord -->
<g id="node3" class="node">
<title>ApplicationRecord</title>
<ellipse fill="none" stroke="black" cx="384.5" cy="-359" rx="77.19" ry="18"/>
<text text-anchor="middle" x="384.5" y="-355.3" font-family="Times,serif" font-size="14.00">ApplicationRecord</text>
</g>
<!-- Joinable -->
<g id="node4" class="node">
<title>Joinable</title>
<ellipse fill="none" stroke="black" cx="670.5" cy="-359" rx="40.09" ry="18"/>
<text text-anchor="middle" x="670.5" y="-355.3" font-family="Times,serif" font-size="14.00">Joinable</text>
</g>
<!-- Room -->
<g id="node8" class="node">
<title>Room</title>
<ellipse fill="none" stroke="black" cx="630.5" cy="-265" rx="32.49" ry="18"/>
<text text-anchor="middle" x="630.5" y="-261.3" font-family="Times,serif" font-size="14.00">Room</text>
</g>
<!-- Joinable&#45;&gt;Room -->
<g id="edge2" class="edge">
<title>Joinable&#45;&gt;Room</title>
<path fill="none" stroke="#4bf018" d="M659.34,-332.34C653.85,-319.71 647.25,-304.52 641.75,-291.87"/>
<polygon fill="#4bf018" stroke="#4bf018" points="659.18,-331.96 659.04,-342.92 661.17,-336.54 663.16,-341.13 663.16,-341.13 663.16,-341.13 661.17,-336.54 667.29,-339.33 659.18,-331.96 659.18,-331.96"/>
<polygon fill="#4bf018" stroke="#4bf018" points="641.78,-291.94 641.92,-280.97 639.78,-287.35 637.79,-282.77 637.79,-282.77 637.79,-282.77 639.78,-287.35 633.66,-284.56 641.78,-291.94 641.78,-291.94"/>
</g>
<!-- User -->
<g id="node9" class="node">
<title>User</title>
<ellipse fill="none" stroke="black" cx="615.5" cy="-178" rx="27.1" ry="18"/>
<text text-anchor="middle" x="615.5" y="-174.3" font-family="Times,serif" font-size="14.00">User</text>
</g>
<!-- Joinable&#45;&gt;User -->
<g id="edge1" class="edge">
<title>Joinable&#45;&gt;User</title>
<path fill="none" stroke="#b4ef6c" d="M685.26,-332.59C700.89,-301.98 720.27,-250.17 696.5,-214 686.44,-198.7 668.12,-190.05 651.44,-185.19"/>
<polygon fill="#b4ef6c" stroke="#b4ef6c" points="685.28,-332.54 676.61,-339.25 682.93,-336.95 680.58,-341.37 680.58,-341.37 680.58,-341.37 682.93,-336.95 684.55,-343.48 685.28,-332.54 685.28,-332.54"/>
<polygon fill="#b4ef6c" stroke="#b4ef6c" points="651.57,-185.22 643,-178.38 646.72,-183.98 641.88,-182.74 641.88,-182.74 641.88,-182.74 646.72,-183.98 640.76,-187.1 651.57,-185.22 651.57,-185.22"/>
</g>
<!-- Message -->
<g id="node5" class="node">
<title>Message</title>
<ellipse fill="none" stroke="black" cx="789.5" cy="-359" rx="42.49" ry="18"/>
<text text-anchor="middle" x="789.5" y="-355.3" font-family="Times,serif" font-size="14.00">Message</text>
</g>
<!-- Message&#45;&gt;Room -->
<g id="edge4" class="edge">
<title>Message&#45;&gt;Room</title>
<path fill="none" stroke="#ce640b" d="M756.6,-338.97C728.37,-322.63 688.02,-299.28 660.62,-283.43"/>
<polygon fill="#ce640b" stroke="#ce640b" points="756.35,-338.82 762.75,-347.72 760.68,-341.32 765,-343.83 765,-343.83 765,-343.83 760.68,-341.32 767.26,-339.93 756.35,-338.82 756.35,-338.82"/>
<polygon fill="#ce640b" stroke="#ce640b" points="660.87,-283.57 654.47,-274.67 656.54,-281.07 652.21,-278.56 652.21,-278.56 652.21,-278.56 656.54,-281.07 649.96,-282.46 660.87,-283.57 660.87,-283.57"/>
</g>
<!-- Message&#45;&gt;User -->
<g id="edge3" class="edge">
<title>Message&#45;&gt;User</title>
<path fill="none" stroke="#fe260e" d="M782.06,-331.55C771.74,-299.45 750.09,-245.71 713.5,-214 696.02,-198.85 671.51,-190.1 651.37,-185.14"/>
<polygon fill="#fe260e" stroke="#fe260e" points="781.96,-331.21 780.6,-342.09 783.43,-335.98 784.9,-340.76 784.9,-340.76 784.9,-340.76 783.43,-335.98 789.2,-339.44 781.96,-331.21 781.96,-331.21"/>
<polygon fill="#fe260e" stroke="#fe260e" points="651.64,-185.2 642.88,-178.6 646.77,-184.09 641.89,-182.99 641.89,-182.99 641.89,-182.99 646.77,-184.09 640.9,-187.38 651.64,-185.2 651.64,-185.2"/>
</g>
<!-- ActiveStorage::Attachment -->
<g id="node10" class="node">
<title>ActiveStorage::Attachment</title>
<ellipse fill="none" stroke="black" cx="749.5" cy="-91" rx="107.48" ry="18"/>
<text text-anchor="middle" x="749.5" y="-87.3" font-family="Times,serif" font-size="14.00">ActiveStorage::Attachment</text>
</g>
<!-- Message&#45;&gt;ActiveStorage::Attachment -->
<g id="edge5" class="edge">
<title>Message&#45;&gt;ActiveStorage::Attachment</title>
<path fill="none" stroke="#36eb4d" d="M792.08,-330.98C796.71,-278.03 804.51,-162.67 788.5,-127 786.69,-122.97 784.16,-119.21 781.26,-115.76"/>
<polygon fill="#36eb4d" stroke="#36eb4d" points="792.11,-330.74 786.73,-340.29 791.66,-335.72 791.21,-340.7 791.21,-340.7 791.21,-340.7 791.66,-335.72 795.69,-341.1 792.11,-330.74 792.11,-330.74"/>
<polygon fill="#36eb4d" stroke="#36eb4d" points="781.39,-115.9 777.65,-105.59 777.91,-112.31 774.42,-108.73 774.42,-108.73 774.42,-108.73 777.91,-112.31 771.19,-111.86 781.39,-115.9 781.39,-115.9"/>
<text text-anchor="middle" x="866.5" y="-217.8" font-family="Times,serif" font-size="14.00">attachments_attachments</text>
</g>
<!-- ActiveStorage::Blob -->
<g id="node11" class="node">
<title>ActiveStorage::Blob</title>
<ellipse fill="none" stroke="black" cx="961.5" cy="-91" rx="83.39" ry="18"/>
<text text-anchor="middle" x="961.5" y="-87.3" font-family="Times,serif" font-size="14.00">ActiveStorage::Blob</text>
</g>
<!-- Message&#45;&gt;ActiveStorage::Blob -->
<g id="edge6" class="edge">
<title>Message&#45;&gt;ActiveStorage::Blob</title>
<path fill="none" stroke="#c17f76" d="M823.28,-338.9C858.42,-317.1 912.07,-278.05 939.5,-229 958.77,-194.54 962.38,-148.06 962.49,-119.07"/>
<polygon fill="#c17f76" stroke="#c17f76" points="823.32,-338.87 812.43,-340.21 819.04,-341.47 814.77,-344.06 814.77,-344.06 814.77,-344.06 819.04,-341.47 817.1,-347.91 823.32,-338.87 823.32,-338.87"/>
<polygon fill="#c17f76" stroke="#c17f76" points="962.49,-119.23 966.89,-109.19 962.44,-114.23 962.39,-109.23 962.39,-109.23 962.39,-109.23 962.44,-114.23 957.89,-109.28 962.49,-119.23 962.49,-119.23"/>
<text text-anchor="middle" x="996.5" y="-217.8" font-family="Times,serif" font-size="14.00">attachments_blobs</text>
</g>
<!-- Notification -->
<g id="node6" class="node">
<title>Notification</title>
<ellipse fill="none" stroke="black" cx="567.5" cy="-91" rx="53.09" ry="18"/>
<text text-anchor="middle" x="567.5" y="-87.3" font-family="Times,serif" font-size="14.00">Notification</text>
</g>
<!-- Recipient -->
<g id="node12" class="node">
<title>Recipient</title>
<ellipse fill="none" stroke="black" cx="567.5" cy="-18" rx="44.39" ry="18"/>
<text text-anchor="middle" x="567.5" y="-14.3" font-family="Times,serif" font-size="14.00">Recipient</text>
</g>
<!-- Notification&#45;&gt;Recipient -->
<g id="edge7" class="edge">
<title>Notification&#45;&gt;Recipient</title>
<path fill="none" stroke="#3e4655" d="M567.5,-63.05C567.5,-57.38 567.5,-51.4 567.5,-45.74"/>
<polygon fill="#3e4655" stroke="#3e4655" points="567.5,-62.81 563,-72.81 567.5,-67.81 567.5,-72.81 567.5,-72.81 567.5,-72.81 567.5,-67.81 572,-72.81 567.5,-62.81 567.5,-62.81"/>
<polygon fill="#3e4655" stroke="#3e4655" points="567.5,-46.03 572,-36.03 567.5,-41.03 567.5,-36.03 567.5,-36.03 567.5,-36.03 567.5,-41.03 563,-36.03 567.5,-46.03 567.5,-46.03"/>
</g>
<!-- Participant -->
<g id="node7" class="node">
<title>Participant</title>
<ellipse fill="none" stroke="black" cx="528.5" cy="-359" rx="48.99" ry="18"/>
<text text-anchor="middle" x="528.5" y="-355.3" font-family="Times,serif" font-size="14.00">Participant</text>
</g>
<!-- Participant&#45;&gt;Room -->
<g id="edge9" class="edge">
<title>Participant&#45;&gt;Room</title>
<path fill="none" stroke="#f81e30" d="M553.39,-335.55C569.57,-320.96 590.55,-302.03 606.54,-287.61"/>
<polygon fill="#f81e30" stroke="#f81e30" points="553.69,-335.28 543.25,-338.63 549.98,-338.63 546.27,-341.97 546.27,-341.97 546.27,-341.97 549.98,-338.63 549.28,-345.32 553.69,-335.28 553.69,-335.28"/>
<polygon fill="#f81e30" stroke="#f81e30" points="606.52,-287.63 616.96,-284.27 610.24,-284.28 613.95,-280.93 613.95,-280.93 613.95,-280.93 610.24,-284.28 610.93,-277.59 606.52,-287.63 606.52,-287.63"/>
</g>
<!-- Participant&#45;&gt;User -->
<g id="edge8" class="edge">
<title>Participant&#45;&gt;User</title>
<path fill="none" stroke="#80b7ad" d="M521.7,-330.94C515.54,-299.84 510.68,-248.64 534.5,-214 544.8,-199.02 562.97,-190.4 579.48,-185.47"/>
<polygon fill="#80b7ad" stroke="#80b7ad" points="521.69,-330.88 519.4,-341.61 522.74,-335.77 523.8,-340.66 523.8,-340.66 523.8,-340.66 522.74,-335.77 528.19,-339.71 521.69,-330.88 521.69,-330.88"/>
<polygon fill="#80b7ad" stroke="#80b7ad" points="579.28,-185.53 590.1,-187.33 584.11,-184.25 588.95,-182.98 588.95,-182.98 588.95,-182.98 584.11,-184.25 587.8,-178.63 579.28,-185.53 579.28,-185.53"/>
</g>
<!-- Room&#45;&gt;User -->
<g id="edge10" class="edge">
<title>Room&#45;&gt;User</title>
<path fill="none" stroke="#c02b7d" d="M625.76,-237.13C624,-227.18 622.01,-215.91 620.26,-205.96"/>
<polygon fill="#c02b7d" stroke="#c02b7d" points="625.73,-236.95 623.03,-247.58 626.6,-241.88 627.46,-246.8 627.46,-246.8 627.46,-246.8 626.6,-241.88 631.9,-246.02 625.73,-236.95 625.73,-236.95"/>
<polygon fill="#c02b7d" stroke="#c02b7d" points="620.27,-206.02 622.96,-195.39 619.4,-201.1 618.53,-196.18 618.53,-196.18 618.53,-196.18 619.4,-201.1 614.1,-196.96 620.27,-206.02 620.27,-206.02"/>
<text text-anchor="middle" x="658" y="-217.8" font-family="Times,serif" font-size="14.00">joined_users</text>
</g>
<!-- User&#45;&gt;Notification -->
<g id="edge14" class="edge">
<title>User&#45;&gt;Notification</title>
<path fill="none" stroke="#48d4ef" d="M592.28,-156.4C588.25,-151.97 584.42,-147.08 581.5,-142 577.39,-134.86 574.43,-126.44 572.33,-118.57"/>
<polygon fill="#48d4ef" stroke="#48d4ef" points="592.12,-156.24 595.91,-166.53 595.62,-159.81 599.12,-163.38 599.12,-163.38 599.12,-163.38 595.62,-159.81 602.33,-160.23 592.12,-156.24 592.12,-156.24"/>
<polygon fill="#48d4ef" stroke="#48d4ef" points="572.37,-118.77 574.47,-108 571.23,-113.9 570.09,-109.03 570.09,-109.03 570.09,-109.03 571.23,-113.9 565.71,-110.06 572.37,-118.77 572.37,-118.77"/>
</g>
<!-- User&#45;&gt;Room -->
<g id="edge13" class="edge">
<title>User&#45;&gt;Room</title>
<path fill="none" stroke="#89e1cf" d="M580.69,-187.9C555.68,-196.11 528.5,-209.91 541.5,-229 552.23,-244.75 571.22,-253.41 588.91,-258.17"/>
<polygon fill="#89e1cf" stroke="#89e1cf" points="580.52,-187.95 591.4,-189.33 585.3,-186.49 590.08,-185.03 590.08,-185.03 590.08,-185.03 585.3,-186.49 588.76,-180.73 580.52,-187.95 580.52,-187.95"/>
<polygon fill="#89e1cf" stroke="#89e1cf" points="588.81,-258.15 597.52,-264.82 593.68,-259.29 598.55,-260.44 598.55,-260.44 598.55,-260.44 593.68,-259.29 599.58,-256.06 588.81,-258.15 588.81,-258.15"/>
<text text-anchor="middle" x="579.5" y="-217.8" font-family="Times,serif" font-size="14.00">joined_rooms</text>
</g>
<!-- User&#45;&gt;ActiveStorage::Attachment -->
<g id="edge11" class="edge">
<title>User&#45;&gt;ActiveStorage::Attachment</title>
<path fill="none" stroke="#37cb6a" d="M600.14,-152.15C596.85,-143.49 595.83,-134.16 601.5,-127 609.23,-117.22 631.4,-109.9 656.3,-104.54"/>
<polygon fill="#37cb6a" stroke="#37cb6a" points="600.12,-152.1 600.33,-163.07 602.26,-156.62 604.4,-161.14 604.4,-161.14 604.4,-161.14 602.26,-156.62 608.47,-159.22 600.12,-152.1 600.12,-152.1"/>
<polygon fill="#37cb6a" stroke="#37cb6a" points="656.15,-104.57 666.85,-107 661.06,-103.58 665.96,-102.59 665.96,-102.59 665.96,-102.59 661.06,-103.58 665.06,-98.18 656.15,-104.57 656.15,-104.57"/>
<text text-anchor="middle" x="651.5" y="-130.8" font-family="Times,serif" font-size="14.00">avatar_attachment</text>
</g>
<!-- User&#45;&gt;ActiveStorage::Blob -->
<g id="edge12" class="edge">
<title>User&#45;&gt;ActiveStorage::Blob</title>
<path fill="none" stroke="#975223" d="M650.15,-168.49C708.1,-154.25 825.48,-125.42 898.4,-107.5"/>
<polygon fill="#975223" stroke="#975223" points="650.37,-168.43 639.59,-166.45 645.52,-169.63 640.66,-170.82 640.66,-170.82 640.66,-170.82 645.52,-169.63 641.74,-175.19 650.37,-168.43 650.37,-168.43"/>
<polygon fill="#975223" stroke="#975223" points="898.23,-107.54 909.02,-109.53 903.09,-106.35 907.94,-105.16 907.94,-105.16 907.94,-105.16 903.09,-106.35 906.87,-100.79 898.23,-107.54 898.23,-107.54"/>
<text text-anchor="middle" x="840.5" y="-130.8" font-family="Times,serif" font-size="14.00">avatar_blob</text>
</g>
</g>
</svg>
