<?xml version="1.0" encoding="UTF-8" standalone="no"?>
<!DOCTYPE svg PUBLIC "-//W3C//DTD SVG 1.1//EN"
 "http://www.w3.org/Graphics/SVG/1.1/DTD/svg11.dtd">
<!-- Generated by graphviz version 7.0.6 (20230106.0513)
 -->
<!-- Title: models_diagram Pages: 1 -->
<svg width="1395pt" height="828pt"
 viewBox="0.00 0.00 1394.69 828.00" xmlns="http://www.w3.org/2000/svg" xmlns:xlink="http://www.w3.org/1999/xlink">
<g id="graph0" class="graph" transform="scale(1 1) rotate(0) translate(4 824)">
<title>models_diagram</title>
<polygon fill="none" stroke="none" points="-4,4 -4,-824 1390.69,-824 1390.69,4 -4,4"/>
<!-- _diagram_info -->
<g id="node1" class="node">
<title>_diagram_info</title>
<text text-anchor="start" x="8" y="-783.6" font-family="Times,serif" font-size="13.00">Models diagram</text>
<text text-anchor="start" x="8" y="-769.6" font-family="Times,serif" font-size="13.00">Date: Jan 10 2023 &#45; 20:00</text>
<text text-anchor="start" x="8" y="-755.6" font-family="Times,serif" font-size="13.00">Migration version: 20230110151513</text>
<text text-anchor="start" x="8" y="-741.6" font-family="Times,serif" font-size="13.00">Generated by RailRoady 1.6.0</text>
<text text-anchor="start" x="8" y="-727.6" font-family="Times,serif" font-size="13.00">http://railroady.prestonlee.com</text>
</g>
<!-- Current -->
<g id="node2" class="node">
<title>Current</title>
<polygon fill="none" stroke="black" points="231.5,-736 231.5,-782 289.5,-782 289.5,-736 231.5,-736"/>
<text text-anchor="middle" x="260.5" y="-766.8" font-family="Times,serif" font-size="14.00">Current</text>
<polyline fill="none" stroke="black" points="231.5,-759 289.5,-759"/>
<text text-anchor="middle" x="260.5" y="-743.8" font-family="Times,serif" font-size="14.00"> </text>
</g>
<!-- ApplicationRecord -->
<g id="node3" class="node">
<title>ApplicationRecord</title>
<ellipse fill="none" stroke="black" cx="384.5" cy="-759" rx="77.19" ry="18"/>
<text text-anchor="middle" x="384.5" y="-755.3" font-family="Times,serif" font-size="14.00">ApplicationRecord</text>
</g>
<!-- Joinable -->
<g id="node4" class="node">
<title>Joinable</title>
<path fill="none" stroke="black" d="M769.5,-706C769.5,-706 1005.5,-706 1005.5,-706 1011.5,-706 1017.5,-712 1017.5,-718 1017.5,-718 1017.5,-800 1017.5,-800 1017.5,-806 1011.5,-812 1005.5,-812 1005.5,-812 769.5,-812 769.5,-812 763.5,-812 757.5,-806 757.5,-800 757.5,-800 757.5,-718 757.5,-718 757.5,-712 763.5,-706 769.5,-706"/>
<text text-anchor="middle" x="887.5" y="-796.8" font-family="Times,serif" font-size="14.00">Joinable</text>
<polyline fill="none" stroke="black" points="757.5,-789 1017.5,-789"/>
<text text-anchor="start" x="765.5" y="-773.8" font-family="Times,serif" font-size="14.00">id :bigint</text>
<text text-anchor="start" x="765.5" y="-758.8" font-family="Times,serif" font-size="14.00">user_id :bigint</text>
<text text-anchor="start" x="765.5" y="-743.8" font-family="Times,serif" font-size="14.00">room_id :bigint</text>
<text text-anchor="start" x="765.5" y="-728.8" font-family="Times,serif" font-size="14.00">created_at :timestamp(6) without time zone</text>
<text text-anchor="start" x="765.5" y="-713.8" font-family="Times,serif" font-size="14.00">updated_at :timestamp(6) without time zone</text>
</g>
<!-- Room -->
<g id="node8" class="node">
<title>Room</title>
<path fill="none" stroke="black" d="M719,-539.5C719,-539.5 984,-539.5 984,-539.5 990,-539.5 996,-545.5 996,-551.5 996,-551.5 996,-648.5 996,-648.5 996,-654.5 990,-660.5 984,-660.5 984,-660.5 719,-660.5 719,-660.5 713,-660.5 707,-654.5 707,-648.5 707,-648.5 707,-551.5 707,-551.5 707,-545.5 713,-539.5 719,-539.5"/>
<text text-anchor="middle" x="851.5" y="-645.3" font-family="Times,serif" font-size="14.00">Room</text>
<polyline fill="none" stroke="black" points="707,-637.5 996,-637.5"/>
<text text-anchor="start" x="715" y="-622.3" font-family="Times,serif" font-size="14.00">id :bigint</text>
<text text-anchor="start" x="715" y="-607.3" font-family="Times,serif" font-size="14.00">name :character varying</text>
<text text-anchor="start" x="715" y="-592.3" font-family="Times,serif" font-size="14.00">is_private :boolean</text>
<text text-anchor="start" x="715" y="-577.3" font-family="Times,serif" font-size="14.00">created_at :timestamp(6) without time zone</text>
<text text-anchor="start" x="715" y="-562.3" font-family="Times,serif" font-size="14.00">updated_at :timestamp(6) without time zone</text>
<text text-anchor="start" x="715" y="-547.3" font-family="Times,serif" font-size="14.00">last_message_at :timestamp(6) without time zone</text>
</g>
<!-- Joinable&#45;&gt;Room -->
<g id="edge2" class="edge">
<title>Joinable&#45;&gt;Room</title>
<path fill="none" stroke="#9be0dd" d="M873.45,-696.72C871.44,-687.95 869.36,-678.88 867.32,-669.98"/>
<polygon fill="#9be0dd" stroke="#9be0dd" points="873.38,-696.41 871.23,-707.16 874.49,-701.28 875.61,-706.16 875.61,-706.16 875.61,-706.16 874.49,-701.28 880,-705.15 873.38,-696.41 873.38,-696.41"/>
<polygon fill="#9be0dd" stroke="#9be0dd" points="867.36,-670.15 869.51,-659.39 866.24,-665.27 865.12,-660.4 865.12,-660.4 865.12,-660.4 866.24,-665.27 860.73,-661.41 867.36,-670.15 867.36,-670.15"/>
</g>
<!-- User -->
<g id="node9" class="node">
<title>User</title>
<path fill="none" stroke="black" d="M788,-276.5C788,-276.5 1093,-276.5 1093,-276.5 1099,-276.5 1105,-282.5 1105,-288.5 1105,-288.5 1105,-475.5 1105,-475.5 1105,-481.5 1099,-487.5 1093,-487.5 1093,-487.5 788,-487.5 788,-487.5 782,-487.5 776,-481.5 776,-475.5 776,-475.5 776,-288.5 776,-288.5 776,-282.5 782,-276.5 788,-276.5"/>
<text text-anchor="middle" x="940.5" y="-472.3" font-family="Times,serif" font-size="14.00">User</text>
<polyline fill="none" stroke="black" points="776,-464.5 1105,-464.5"/>
<text text-anchor="start" x="784" y="-449.3" font-family="Times,serif" font-size="14.00">username :character varying</text>
<text text-anchor="start" x="784" y="-434.3" font-family="Times,serif" font-size="14.00">email :character varying</text>
<text text-anchor="start" x="784" y="-419.3" font-family="Times,serif" font-size="14.00">encrypted_password :character varying</text>
<text text-anchor="start" x="784" y="-404.3" font-family="Times,serif" font-size="14.00">reset_password_token :character varying</text>
<text text-anchor="start" x="784" y="-389.3" font-family="Times,serif" font-size="14.00">reset_password_sent_at :timestamp(6) without time zone</text>
<text text-anchor="start" x="784" y="-374.3" font-family="Times,serif" font-size="14.00">remember_created_at :timestamp(6) without time zone</text>
<text text-anchor="start" x="784" y="-359.3" font-family="Times,serif" font-size="14.00">created_at :timestamp(6) without time zone</text>
<text text-anchor="start" x="784" y="-344.3" font-family="Times,serif" font-size="14.00">updated_at :timestamp(6) without time zone</text>
<text text-anchor="start" x="784" y="-329.3" font-family="Times,serif" font-size="14.00">status :integer</text>
<text text-anchor="start" x="784" y="-314.3" font-family="Times,serif" font-size="14.00">role :integer</text>
<text text-anchor="start" x="784" y="-299.3" font-family="Times,serif" font-size="14.00">current_room :integer</text>
<text text-anchor="start" x="784" y="-284.3" font-family="Times,serif" font-size="14.00">id :bigint</text>
</g>
<!-- Joinable&#45;&gt;User -->
<g id="edge1" class="edge">
<title>Joinable&#45;&gt;User</title>
<path fill="none" stroke="#7a6474" d="M977.59,-699.34C988.87,-688.02 998.79,-675.2 1005.5,-661 1029.77,-609.63 1019.28,-548.54 1000.28,-496.72"/>
<polygon fill="#7a6474" stroke="#7a6474" points="977.64,-699.29 967.3,-702.93 974.02,-702.74 970.41,-706.19 970.41,-706.19 970.41,-706.19 974.02,-702.74 973.51,-709.44 977.64,-699.29 977.64,-699.29"/>
<polygon fill="#7a6474" stroke="#7a6474" points="1000.33,-496.84 1000.98,-485.89 998.55,-492.16 996.78,-487.49 996.78,-487.49 996.78,-487.49 998.55,-492.16 992.57,-489.09 1000.33,-496.84 1000.33,-496.84"/>
</g>
<!-- Message -->
<g id="node5" class="node">
<title>Message</title>
<path fill="none" stroke="black" d="M1047.5,-698.5C1047.5,-698.5 1283.5,-698.5 1283.5,-698.5 1289.5,-698.5 1295.5,-704.5 1295.5,-710.5 1295.5,-710.5 1295.5,-807.5 1295.5,-807.5 1295.5,-813.5 1289.5,-819.5 1283.5,-819.5 1283.5,-819.5 1047.5,-819.5 1047.5,-819.5 1041.5,-819.5 1035.5,-813.5 1035.5,-807.5 1035.5,-807.5 1035.5,-710.5 1035.5,-710.5 1035.5,-704.5 1041.5,-698.5 1047.5,-698.5"/>
<text text-anchor="middle" x="1165.5" y="-804.3" font-family="Times,serif" font-size="14.00">Message</text>
<polyline fill="none" stroke="black" points="1035.5,-796.5 1295.5,-796.5"/>
<text text-anchor="start" x="1043.5" y="-781.3" font-family="Times,serif" font-size="14.00">id :bigint</text>
<text text-anchor="start" x="1043.5" y="-766.3" font-family="Times,serif" font-size="14.00">user_id :bigint</text>
<text text-anchor="start" x="1043.5" y="-751.3" font-family="Times,serif" font-size="14.00">room_id :bigint</text>
<text text-anchor="start" x="1043.5" y="-736.3" font-family="Times,serif" font-size="14.00">body :text</text>
<text text-anchor="start" x="1043.5" y="-721.3" font-family="Times,serif" font-size="14.00">created_at :timestamp(6) without time zone</text>
<text text-anchor="start" x="1043.5" y="-706.3" font-family="Times,serif" font-size="14.00">updated_at :timestamp(6) without time zone</text>
</g>
<!-- Message&#45;&gt;Room -->
<g id="edge4" class="edge">
<title>Message&#45;&gt;Room</title>
<path fill="none" stroke="#743723" d="M1037.95,-694.22C1018.58,-684.54 998.6,-674.55 979.23,-664.86"/>
<polygon fill="#743723" stroke="#743723" points="1037.85,-694.17 1044.78,-702.67 1042.32,-696.41 1046.79,-698.65 1046.79,-698.65 1046.79,-698.65 1042.32,-696.41 1048.8,-694.62 1037.85,-694.17 1037.85,-694.17"/>
<polygon fill="#743723" stroke="#743723" points="979.32,-664.91 972.39,-656.41 974.85,-662.67 970.38,-660.44 970.38,-660.44 970.38,-660.44 974.85,-662.67 968.37,-664.46 979.32,-664.91 979.32,-664.91"/>
</g>
<!-- Message&#45;&gt;User -->
<g id="edge3" class="edge">
<title>Message&#45;&gt;User</title>
<path fill="none" stroke="#5fed5a" d="M1127.28,-690.1C1098.3,-639.09 1057.16,-567.71 1019.5,-506 1017.48,-502.68 1015.41,-499.32 1013.32,-495.94"/>
<polygon fill="#5fed5a" stroke="#5fed5a" points="1127.25,-690.04 1128.27,-700.96 1129.72,-694.39 1132.18,-698.74 1132.18,-698.74 1132.18,-698.74 1129.72,-694.39 1136.1,-696.52 1127.25,-690.04 1127.25,-690.04"/>
<polygon fill="#5fed5a" stroke="#5fed5a" points="1013.34,-495.97 1011.88,-485.1 1010.7,-491.72 1008.06,-487.47 1008.06,-487.47 1008.06,-487.47 1010.7,-491.72 1004.24,-489.85 1013.34,-495.97 1013.34,-495.97"/>
</g>
<!-- ActiveStorage::Attachment -->
<g id="node10" class="node">
<title>ActiveStorage::Attachment</title>
<ellipse fill="none" stroke="black" cx="1095.5" cy="-149" rx="107.48" ry="18"/>
<text text-anchor="middle" x="1095.5" y="-145.3" font-family="Times,serif" font-size="14.00">ActiveStorage::Attachment</text>
</g>
<!-- Message&#45;&gt;ActiveStorage::Attachment -->
<g id="edge5" class="edge">
<title>Message&#45;&gt;ActiveStorage::Attachment</title>
<path fill="none" stroke="#773ab1" d="M1158.37,-688.82C1153.67,-641.59 1147.65,-577.56 1143.5,-521 1134.45,-397.6 1152.77,-364.33 1128.5,-243 1123.89,-219.93 1114.73,-194.85 1107.23,-176.56"/>
<polygon fill="#773ab1" stroke="#773ab1" points="1158.35,-688.69 1154.87,-699.09 1158.85,-693.66 1159.35,-698.64 1159.35,-698.64 1159.35,-698.64 1158.85,-693.66 1163.83,-698.19 1158.35,-688.69 1158.35,-688.69"/>
<polygon fill="#773ab1" stroke="#773ab1" points="1107.25,-176.62 1107.53,-165.66 1105.32,-172.01 1103.38,-167.4 1103.38,-167.4 1103.38,-167.4 1105.32,-172.01 1099.23,-169.14 1107.25,-176.62 1107.25,-176.62"/>
<text text-anchor="middle" x="1212.5" y="-509.8" font-family="Times,serif" font-size="14.00">attachments_attachments</text>
</g>
<!-- ActiveStorage::Blob -->
<g id="node11" class="node">
<title>ActiveStorage::Blob</title>
<ellipse fill="none" stroke="black" cx="1303.5" cy="-149" rx="83.39" ry="18"/>
<text text-anchor="middle" x="1303.5" y="-145.3" font-family="Times,serif" font-size="14.00">ActiveStorage::Blob</text>
</g>
<!-- Message&#45;&gt;ActiveStorage::Blob -->
<g id="edge6" class="edge">
<title>Message&#45;&gt;ActiveStorage::Blob</title>
<path fill="none" stroke="#775fa4" d="M1207.6,-690.35C1233.89,-644.4 1265.65,-581.27 1281.5,-521 1314.39,-395.95 1309.27,-239.32 1305.49,-177.2"/>
<polygon fill="#775fa4" stroke="#775fa4" points="1207.77,-690.06 1198.87,-696.47 1205.27,-694.39 1202.76,-698.72 1202.76,-698.72 1202.76,-698.72 1205.27,-694.39 1206.66,-700.97 1207.77,-690.06 1207.77,-690.06"/>
<polygon fill="#775fa4" stroke="#775fa4" points="1305.5,-177.37 1309.35,-167.1 1305.18,-172.38 1304.86,-167.39 1304.86,-167.39 1304.86,-167.39 1305.18,-172.38 1300.37,-167.68 1305.5,-177.37 1305.5,-177.37"/>
<text text-anchor="middle" x="1335.5" y="-509.8" font-family="Times,serif" font-size="14.00">attachments_blobs</text>
</g>
<!-- Notification -->
<g id="node6" class="node">
<title>Notification</title>
<path fill="none" stroke="black" d="M722.5,-73.5C722.5,-73.5 958.5,-73.5 958.5,-73.5 964.5,-73.5 970.5,-79.5 970.5,-85.5 970.5,-85.5 970.5,-212.5 970.5,-212.5 970.5,-218.5 964.5,-224.5 958.5,-224.5 958.5,-224.5 722.5,-224.5 722.5,-224.5 716.5,-224.5 710.5,-218.5 710.5,-212.5 710.5,-212.5 710.5,-85.5 710.5,-85.5 710.5,-79.5 716.5,-73.5 722.5,-73.5"/>
<text text-anchor="middle" x="840.5" y="-209.3" font-family="Times,serif" font-size="14.00">Notification</text>
<polyline fill="none" stroke="black" points="710.5,-201.5 970.5,-201.5"/>
<text text-anchor="start" x="718.5" y="-186.3" font-family="Times,serif" font-size="14.00">updated_at :timestamp(6) without time zone</text>
<text text-anchor="start" x="718.5" y="-171.3" font-family="Times,serif" font-size="14.00">recipient_type :character varying</text>
<text text-anchor="start" x="718.5" y="-156.3" font-family="Times,serif" font-size="14.00">recipient_id :bigint</text>
<text text-anchor="start" x="718.5" y="-141.3" font-family="Times,serif" font-size="14.00">type :character varying</text>
<text text-anchor="start" x="718.5" y="-126.3" font-family="Times,serif" font-size="14.00">params :jsonb</text>
<text text-anchor="start" x="718.5" y="-111.3" font-family="Times,serif" font-size="14.00">read_at :timestamp(6) without time zone</text>
<text text-anchor="start" x="718.5" y="-96.3" font-family="Times,serif" font-size="14.00">created_at :timestamp(6) without time zone</text>
<text text-anchor="start" x="718.5" y="-81.3" font-family="Times,serif" font-size="14.00">id :bigint</text>
</g>
<!-- Recipient -->
<g id="node12" class="node">
<title>Recipient</title>
<ellipse fill="none" stroke="black" cx="840.5" cy="-18" rx="44.39" ry="18"/>
<text text-anchor="middle" x="840.5" y="-14.3" font-family="Times,serif" font-size="14.00">Recipient</text>
</g>
<!-- Notification&#45;&gt;Recipient -->
<g id="edge7" class="edge">
<title>Notification&#45;&gt;Recipient</title>
<path fill="none" stroke="#8ddbc9" d="M840.5,-63.93C840.5,-57.55 840.5,-51.46 840.5,-45.93"/>
<polygon fill="#8ddbc9" stroke="#8ddbc9" points="840.5,-63.71 836,-73.71 840.5,-68.71 840.5,-73.71 840.5,-73.71 840.5,-73.71 840.5,-68.71 845,-73.71 840.5,-63.71 840.5,-63.71"/>
<polygon fill="#8ddbc9" stroke="#8ddbc9" points="840.5,-46.08 845,-36.08 840.5,-41.08 840.5,-36.08 840.5,-36.08 840.5,-36.08 840.5,-41.08 836,-36.08 840.5,-46.08 840.5,-46.08"/>
</g>
<!-- Participant -->
<g id="node7" class="node">
<title>Participant</title>
<path fill="none" stroke="black" d="M491.5,-706C491.5,-706 727.5,-706 727.5,-706 733.5,-706 739.5,-712 739.5,-718 739.5,-718 739.5,-800 739.5,-800 739.5,-806 733.5,-812 727.5,-812 727.5,-812 491.5,-812 491.5,-812 485.5,-812 479.5,-806 479.5,-800 479.5,-800 479.5,-718 479.5,-718 479.5,-712 485.5,-706 491.5,-706"/>
<text text-anchor="middle" x="609.5" y="-796.8" font-family="Times,serif" font-size="14.00">Participant</text>
<polyline fill="none" stroke="black" points="479.5,-789 739.5,-789"/>
<text text-anchor="start" x="487.5" y="-773.8" font-family="Times,serif" font-size="14.00">id :bigint</text>
<text text-anchor="start" x="487.5" y="-758.8" font-family="Times,serif" font-size="14.00">user_id :bigint</text>
<text text-anchor="start" x="487.5" y="-743.8" font-family="Times,serif" font-size="14.00">room_id :bigint</text>
<text text-anchor="start" x="487.5" y="-728.8" font-family="Times,serif" font-size="14.00">created_at :timestamp(6) without time zone</text>
<text text-anchor="start" x="487.5" y="-713.8" font-family="Times,serif" font-size="14.00">updated_at :timestamp(6) without time zone</text>
</g>
<!-- Participant&#45;&gt;Room -->
<g id="edge9" class="edge">
<title>Participant&#45;&gt;Room</title>
<path fill="none" stroke="#c51c5e" d="M697.7,-700.78C715.27,-689.38 733.83,-677.34 751.76,-665.71"/>
<polygon fill="#c51c5e" stroke="#c51c5e" points="697.8,-700.71 686.96,-702.38 693.61,-703.44 689.41,-706.16 689.41,-706.16 689.41,-706.16 693.61,-703.44 691.86,-709.93 697.8,-700.71 697.8,-700.71"/>
<polygon fill="#c51c5e" stroke="#c51c5e" points="751.55,-665.84 762.39,-664.18 755.75,-663.12 759.94,-660.4 759.94,-660.4 759.94,-660.4 755.75,-663.12 757.49,-656.63 751.55,-665.84 751.55,-665.84"/>
</g>
<!-- Participant&#45;&gt;User -->
<g id="edge8" class="edge">
<title>Participant&#45;&gt;User</title>
<path fill="none" stroke="#1d4eae" d="M623.17,-696.93C636.13,-649.8 659.38,-585.08 697.5,-539 717.48,-514.84 742.2,-493.18 768.15,-474.23"/>
<polygon fill="#1d4eae" stroke="#1d4eae" points="623.22,-696.74 616.3,-705.24 621.93,-701.57 620.64,-706.4 620.64,-706.4 620.64,-706.4 621.93,-701.57 624.99,-707.57 623.22,-696.74 623.22,-696.74"/>
<polygon fill="#1d4eae" stroke="#1d4eae" points="768.11,-474.26 778.86,-472.1 772.17,-471.35 776.24,-468.44 776.24,-468.44 776.24,-468.44 772.17,-471.35 773.62,-464.78 768.11,-474.26 768.11,-474.26"/>
</g>
<!-- Room&#45;&gt;User -->
<g id="edge10" class="edge">
<title>Room&#45;&gt;User</title>
<path fill="none" stroke="#869c5c" d="M913,-531.5C915.01,-528.05 916.86,-524.54 918.5,-521 922.06,-513.32 925.05,-505.18 927.58,-496.83"/>
<polygon fill="#869c5c" stroke="#869c5c" points="913.01,-531.48 903.88,-537.56 910.35,-535.72 907.69,-539.96 907.69,-539.96 907.69,-539.96 910.35,-535.72 911.5,-542.35 913.01,-531.48 913.01,-531.48"/>
<polygon fill="#869c5c" stroke="#869c5c" points="927.54,-496.97 934.56,-488.55 928.88,-492.15 930.23,-487.34 930.23,-487.34 930.23,-487.34 928.88,-492.15 925.89,-486.13 927.54,-496.97 927.54,-496.97"/>
<text text-anchor="middle" x="958" y="-509.8" font-family="Times,serif" font-size="14.00">joined_users</text>
</g>
<!-- User&#45;&gt;Notification -->
<g id="edge14" class="edge">
<title>User&#45;&gt;Notification</title>
<path fill="none" stroke="#0ab7f6" d="M891.37,-267.5C886.34,-255.89 881.3,-244.26 876.46,-233.06"/>
<polygon fill="#0ab7f6" stroke="#0ab7f6" points="891.35,-267.47 891.2,-278.44 893.34,-272.06 895.33,-276.65 895.33,-276.65 895.33,-276.65 893.34,-272.06 899.46,-274.86 891.35,-267.47 891.35,-267.47"/>
<polygon fill="#0ab7f6" stroke="#0ab7f6" points="876.59,-233.37 876.75,-222.4 874.6,-228.78 872.62,-224.19 872.62,-224.19 872.62,-224.19 874.6,-228.78 868.49,-225.98 876.59,-233.37 876.59,-233.37"/>
</g>
<!-- User&#45;&gt;Room -->
<g id="edge13" class="edge">
<title>User&#45;&gt;Room</title>
<path fill="none" stroke="#d0387d" d="M842.58,-495.9C841.09,-499.23 839.73,-502.6 838.5,-506 835.79,-513.52 834.59,-521.58 834.43,-529.68"/>
<polygon fill="#d0387d" stroke="#d0387d" points="842.45,-496.16 850.84,-489.1 844.61,-491.66 846.78,-487.15 846.78,-487.15 846.78,-487.15 844.61,-491.66 842.73,-485.2 842.45,-496.16 842.45,-496.16"/>
<polygon fill="#d0387d" stroke="#d0387d" points="834.43,-529.57 830.22,-539.69 834.57,-534.57 834.71,-539.57 834.71,-539.57 834.71,-539.57 834.57,-534.57 839.21,-539.44 834.43,-529.57 834.43,-529.57"/>
<text text-anchor="middle" x="876.5" y="-509.8" font-family="Times,serif" font-size="14.00">joined_rooms</text>
</g>
<!-- User&#45;&gt;ActiveStorage::Attachment -->
<g id="edge11" class="edge">
<title>User&#45;&gt;ActiveStorage::Attachment</title>
<path fill="none" stroke="#6b38d8" d="M931.04,-267.01C933.38,-258.53 936.77,-250.41 941.5,-243 951.55,-227.24 963.17,-234.09 979.5,-225 1008.8,-208.68 1040.7,-187.82 1063.62,-172.24"/>
<polygon fill="#6b38d8" stroke="#6b38d8" points="931.05,-266.96 924.43,-275.71 929.93,-271.84 928.82,-276.71 928.82,-276.71 928.82,-276.71 929.93,-271.84 933.21,-277.71 931.05,-266.96 931.05,-266.96"/>
<polygon fill="#6b38d8" stroke="#6b38d8" points="1063.38,-172.4 1074.17,-170.47 1067.5,-169.58 1071.63,-166.75 1071.63,-166.75 1071.63,-166.75 1067.5,-169.58 1069.09,-163.04 1063.38,-172.4 1063.38,-172.4"/>
<text text-anchor="middle" x="991.5" y="-246.8" font-family="Times,serif" font-size="14.00">avatar_attachment</text>
</g>
<!-- User&#45;&gt;ActiveStorage::Blob -->
<g id="edge12" class="edge">
<title>User&#45;&gt;ActiveStorage::Blob</title>
<path fill="none" stroke="#764152" d="M1113.14,-287.22C1146.38,-267.6 1180.49,-246.36 1211.5,-225 1234.81,-208.94 1259.6,-188.52 1277.56,-173.04"/>
<polygon fill="#764152" stroke="#764152" points="1113.33,-287.1 1102.43,-288.29 1109.02,-289.64 1104.7,-292.17 1104.7,-292.17 1104.7,-292.17 1109.02,-289.64 1106.98,-296.05 1113.33,-287.1 1113.33,-287.1"/>
<polygon fill="#764152" stroke="#764152" points="1277.27,-173.3 1287.77,-170.14 1281.04,-170.02 1284.82,-166.74 1284.82,-166.74 1284.82,-166.74 1281.04,-170.02 1281.87,-163.34 1277.27,-173.3 1277.27,-173.3"/>
<text text-anchor="middle" x="1214.5" y="-246.8" font-family="Times,serif" font-size="14.00">avatar_blob</text>
</g>
</g>
</svg>
